<svg id="Calque_1" data-name="Calque 1" xmlns="http://www.w3.org/2000/svg" xmlns:xlink="http://www.w3.org/1999/xlink" viewBox="0 0 112.93 18.04"><defs><style>.cls-1{fill:none;}.cls-2{fill:#1d1d1b;}.cls-3{clip-path:url(#clip-path);}</style><clipPath id="clip-path"><path class="cls-1" d="M113.28,0h-2.44l-8.46,10.21V3.93h-1.7V14.8Z"/></clipPath></defs><path class="cls-2" d="M9.94,12.22a5.23,5.23,0,0,1-2.52.63,5.47,5.47,0,0,1-2.13-.42,5.35,5.35,0,0,1-1.75-1.16A5.42,5.42,0,0,1,2.38,9.54a5.31,5.31,0,0,1-.44-2.13,5.23,5.23,0,0,1,.44-2.12A5.37,5.37,0,0,1,5.29,2.38a5.31,5.31,0,0,1,2.13-.44,5.56,5.56,0,0,1,2.65.65A5.67,5.67,0,0,1,12.13,4.5l1.3-1.32A7.24,7.24,0,0,0,10.9.85,7,7,0,0,0,7.42,0,7.35,7.35,0,0,0,.59,4.52,7.23,7.23,0,0,0,0,7.42a7.35,7.35,0,0,0,2.18,5.23,7.52,7.52,0,0,0,2.34,1.57,7.22,7.22,0,0,0,2.9.58A7,7,0,0,0,10.78,14a7.5,7.5,0,0,0,2.6-2.3l-1.3-1.28A7,7,0,0,1,9.94,12.22Z"/><path class="cls-2" d="M24.44,7.27a5.7,5.7,0,0,0-1.16-1.74,5.45,5.45,0,0,0-6-1.17,5.45,5.45,0,0,0-1.73,1.17A5.55,5.55,0,0,0,14,9.41a5.16,5.16,0,0,0,.42,2.11,5.16,5.16,0,0,0,1.14,1.73,5.77,5.77,0,0,0,1.73,1.16,5.49,5.49,0,0,0,4.26,0,5.6,5.6,0,0,0,1.72-1.16,5.53,5.53,0,0,0,1.16-1.73,5.34,5.34,0,0,0,.43-2.11A5.45,5.45,0,0,0,24.44,7.27Zm-1.72,3.52A3.85,3.85,0,0,1,22,11.93a3.67,3.67,0,0,1-1.14.76,3.57,3.57,0,0,1-1.38.27,3.54,3.54,0,0,1-2.52-1,3.67,3.67,0,0,1-.76-1.14,3.44,3.44,0,0,1-.28-1.38A3.5,3.5,0,0,1,16.16,8a3.45,3.45,0,0,1,.76-1.14,3.61,3.61,0,0,1,1.14-.78,3.38,3.38,0,0,1,1.38-.29,3.41,3.41,0,0,1,1.38.29A3.73,3.73,0,0,1,22,6.87,3.61,3.61,0,0,1,22.72,8,3.67,3.67,0,0,1,23,9.41,3.61,3.61,0,0,1,22.72,10.79Z"/><path class="cls-2" d="M36.43,7.08a5.14,5.14,0,0,0-1-1.66,4.77,4.77,0,0,0-1.56-1.09,4.67,4.67,0,0,0-1.93-.4,4.79,4.79,0,0,0-2.35.59,4.61,4.61,0,0,0-1.72,1.73V4H26V14.8h1.86V9.5A4.32,4.32,0,0,1,28.14,8a3.66,3.66,0,0,1,.77-1.17A3.81,3.81,0,0,1,30,6.06a3.49,3.49,0,0,1,1.37-.28,3.38,3.38,0,0,1,1.38.29,3.64,3.64,0,0,1,1.14.79A3.78,3.78,0,0,1,34.69,8,3.5,3.5,0,0,1,35,9.41V14.8h1.85V9.19A5.54,5.54,0,0,0,36.43,7.08Z"/><path class="cls-2" d="M45.33,12.45a3.51,3.51,0,0,1-1.86.51,3.71,3.71,0,0,1-1.4-.27,3.45,3.45,0,0,1-1.14-.76,3.7,3.7,0,0,1-.77-1.14,3.45,3.45,0,0,1-.29-1.38A3.38,3.38,0,0,1,40.16,8a3.48,3.48,0,0,1,.77-1.14,3.64,3.64,0,0,1,1.14-.77,3.71,3.71,0,0,1,1.4-.27,3.29,3.29,0,0,1,1.9.53,5,5,0,0,1,1.39,1.43l1.35-1.34a5.44,5.44,0,0,0-2-1.88A5.65,5.65,0,0,0,43.47,4a5.3,5.3,0,0,0-3.86,1.57,4.91,4.91,0,0,0-1.15,1.72A5.45,5.45,0,0,0,38,9.41a5.33,5.33,0,0,0,.42,2.11,5,5,0,0,0,1.15,1.73,5.6,5.6,0,0,0,1.72,1.16,5.28,5.28,0,0,0,2.14.43,5.74,5.74,0,0,0,2.63-.64,5.13,5.13,0,0,0,2-1.92L46.76,11A4.2,4.2,0,0,1,45.33,12.45Z"/><path class="cls-2" d="M56.2,12.35a4,4,0,0,1-1.72.64,3.84,3.84,0,0,1-1.07,0,2.35,2.35,0,0,1-.88-.35l6.4-6a6.07,6.07,0,0,0-2.19-2A5.8,5.8,0,0,0,54,3.93a5.22,5.22,0,0,0-2.12.43,5.3,5.3,0,0,0-1.72,1.17A5.36,5.36,0,0,0,49,7.27a5.29,5.29,0,0,0-.44,2.14A5.18,5.18,0,0,0,49,11.52a5.21,5.21,0,0,0,1.16,1.73,5.6,5.6,0,0,0,1.72,1.16,5.22,5.22,0,0,0,2.12.43,5.82,5.82,0,0,0,2.66-.62,5.65,5.65,0,0,0,2.13-2L57.57,11A4.88,4.88,0,0,1,56.2,12.35Zm-5-.75a2.66,2.66,0,0,1-.62-.94,3.38,3.38,0,0,1-.22-1.54,3.8,3.8,0,0,1,.36-1.31,3.65,3.65,0,0,1,.74-1,3.4,3.4,0,0,1,1-.72,3.75,3.75,0,0,1,1.29-.31,3.32,3.32,0,0,1,2.47.89Z"/><path class="cls-2" d="M70.31,7.27a5.66,5.66,0,0,0-1.07-1.74,5,5,0,0,0-1.6-1.17,4.73,4.73,0,0,0-4.26.16,4.83,4.83,0,0,0-1.67,1.6V4H59.86V18h1.85V12.67a4.8,4.8,0,0,0,1.67,1.59,4.77,4.77,0,0,0,4.26.15,5.3,5.3,0,0,0,1.6-1.16,5.5,5.5,0,0,0,1.07-1.73,5.7,5.7,0,0,0,.4-2.11A5.82,5.82,0,0,0,70.31,7.27Zm-1.74,3.52a3.67,3.67,0,0,1-.76,1.14,3.75,3.75,0,0,1-1.13.76,3.74,3.74,0,0,1-2.79,0,3.56,3.56,0,0,1-1.14-.76A3.85,3.85,0,0,1,62,10.79a3.44,3.44,0,0,1-.28-1.38V9.28A3.55,3.55,0,0,1,62,7.94a3.63,3.63,0,0,1,1.9-1.85,3.33,3.33,0,0,1,1.37-.29,3.46,3.46,0,0,1,1.39.29,3.81,3.81,0,0,1,1.13.78A3.45,3.45,0,0,1,68.57,8a3.5,3.5,0,0,1,.28,1.4A3.44,3.44,0,0,1,68.57,10.79Z"/><path class="cls-2" d="M71.13,0V1.94h3.68V14.8h1.94V1.94h3.68V0Z"/><path class="cls-2" d="M89.73,4V6.16A5.09,5.09,0,0,0,88,4.54a4.41,4.41,0,0,0-2.29-.61,4.55,4.55,0,0,0-2,.43,5,5,0,0,0-1.6,1.17,5.45,5.45,0,0,0-1.06,1.74,5.62,5.62,0,0,0-.4,2.14,5.5,5.5,0,0,0,.4,2.11,5.12,5.12,0,0,0,2.66,2.89,4.55,4.55,0,0,0,2,.43,4.5,4.5,0,0,0,2.29-.6,5,5,0,0,0,1.71-1.61V14.8H91.6V4Zm-.32,6.81a3.88,3.88,0,0,1-.77,1.14,3.45,3.45,0,0,1-1.14.76,3.54,3.54,0,0,1-1.38.27,3.64,3.64,0,0,1-1.4-.27,3.51,3.51,0,0,1-1.13-.76A3.67,3.67,0,0,1,82.84,8a3.43,3.43,0,0,1,.75-1.14,3.57,3.57,0,0,1,1.13-.78,3.47,3.47,0,0,1,1.4-.29,3.38,3.38,0,0,1,1.38.29,3.5,3.5,0,0,1,1.14.78A3.64,3.64,0,0,1,89.41,8a3.51,3.51,0,0,1,.29,1.4A3.45,3.45,0,0,1,89.41,10.79Z"/><path class="cls-2" d="M97,8.72A4.87,4.87,0,0,1,95.35,8a1.22,1.22,0,0,1-.51-1,1.65,1.65,0,0,1,.43-1.12,1.28,1.28,0,0,1,2,0,1.65,1.65,0,0,1,.43,1.16h1.7a3.06,3.06,0,0,0-.88-2.31,3.15,3.15,0,0,0-2.31-.85,3.23,3.23,0,0,0-1.27.24,3,3,0,0,0-1,.67,3,3,0,0,0-.66,1A3.25,3.25,0,0,0,93,7.11,2.48,2.48,0,0,0,93.78,9a4.28,4.28,0,0,0,1.84,1c.31.09.59.17.85.26a2.78,2.78,0,0,1,.67.32,1.32,1.32,0,0,1,.44.44,1.34,1.34,0,0,1,.16.68,1.5,1.5,0,0,1-.42,1.09,1.34,1.34,0,0,1-1,.44,1.39,1.39,0,0,1-1-.45,1.49,1.49,0,0,1-.43-1.1H93A3.06,3.06,0,0,0,95,14.61a3.32,3.32,0,0,0,1.23.23,3.22,3.22,0,0,0,1.26-.25,3.12,3.12,0,0,0,1-.69,3,3,0,0,0,.67-1,3.23,3.23,0,0,0,.25-1.24,2.76,2.76,0,0,0-.61-1.93A3.93,3.93,0,0,0,97,8.72Z"/><polygon class="cls-2" points="106.27 9.87 110.56 14.8 112.93 14.8 107.42 8.51 106.27 9.87"/></svg>