<svg id="Calque_1" data-name="Calque 1" xmlns="http://www.w3.org/2000/svg" viewBox="0 0 204.09 58.41"><defs><style>.cls-1{fill:#e2001a;}</style></defs><title>sonceboz_picto_texte_noir_Plan de travail 2</title><path d="M15,29.2A28.35,28.35,0,1,1,43.31,57.55,28.38,28.38,0,0,1,15,29.2m-.86,0A29.2,29.2,0,1,0,43.31,0a29.24,29.24,0,0,0-29.2,29.2"/><path d="M96.42,21.26c0,3.36,2.79,4.85,5.8,4.85,3.71,0,5.67-1.87,5.67-4.37,0-3.1-3.05-3.73-4-4-3.42-.88-4.07-1-4.07-2.06s1.11-1.55,2.06-1.55c1.43,0,2.6.42,2.69,2.06h2.9c0-3.15-2.62-4.39-5.46-4.39-2.46,0-5.1,1.34-5.1,4.13,0,2.56,2,3.34,4.07,3.88s4,.78,4,2.25-1.6,1.7-2.66,1.7c-1.6,0-3-.71-3-2.52Z"/><path d="M112.07,19c0-2.39,1-4.68,3.7-4.68s3.7,2.29,3.7,4.68-1,4.56-3.7,4.56-3.7-2.29-3.7-4.56m-3,0c0,3.93,2.48,7.09,6.7,7.09s6.7-3.15,6.7-7.09-2.48-7.2-6.7-7.2-6.7,3.15-6.7,7.2"/><polygon points="124.52 25.79 127.32 25.79 127.32 16.66 127.36 16.66 133.03 25.79 136.03 25.79 136.03 12.15 133.22 12.15 133.22 21.3 133.19 21.3 127.49 12.15 124.52 12.15 124.52 25.79"/><path d="M150.66,16.73c-.36-3.15-2.89-4.91-5.88-4.91-4.22,0-6.7,3.15-6.7,7.2s2.48,7.09,6.7,7.09a5.76,5.76,0,0,0,6-5.58h-2.9c-.23,1.8-1.26,3.06-3.09,3.06-2.69,0-3.7-2.29-3.7-4.56s1-4.68,3.7-4.68a2.94,2.94,0,0,1,3,2.39Z"/><polygon points="152.81 25.79 163.16 25.79 163.16 23.27 155.81 23.27 155.81 19.92 162.42 19.92 162.42 17.59 155.81 17.59 155.81 14.67 163.01 14.67 163.01 12.15 152.81 12.15 152.81 25.79"/><path d="M168.18,14.48H171c1.07,0,2.06.27,2.06,1.57,0,1.14-.78,1.62-1.83,1.62h-3Zm-3,11.31h6.61c2.46,0,4.81-1.18,4.81-4a3.33,3.33,0,0,0-2.5-3.46A3,3,0,0,0,176,15.53c0-2.54-1.76-3.38-4.35-3.38h-6.42Zm3-6.07h3.27c1.28,0,2.16.55,2.16,1.95s-1,1.8-2.21,1.8h-3.21Z"/><path d="M181,19c0-2.39,1-4.68,3.71-4.68s3.7,2.29,3.7,4.68-1,4.56-3.7,4.56S181,21.3,181,19m-3,0c0,3.93,2.48,7.09,6.7,7.09s6.7-3.15,6.7-7.09-2.48-7.2-6.7-7.2S178,15,178,19"/><polygon points="192.59 25.79 204.09 25.79 204.09 23.27 196.59 23.27 203.9 14.52 203.9 12.15 193.17 12.15 193.17 14.67 199.91 14.67 192.59 23.42 192.59 25.79"/><rect class="cls-1" y="31.72" width="49.53" height="6.56"/><rect class="cls-1" x="36.96" y="19.21" width="49.75" height="6.57"/></svg>